<svg xmlns="http://www.w3.org/2000/svg" width="24.152" height="15.231" viewBox="0 0 24.152 15.231">
  <path id="eye" d="M14.009,21.283c7.216,0,12.067-5.818,12.067-7.62S21.207,6.052,14.009,6.052c-7.11,0-12.085,5.81-12.085,7.611S6.881,21.283,14.009,21.283Zm0-1.723c-5.607,0-10.046-4.667-10.046-5.9,0-1.028,4.438-5.889,10.046-5.889,5.581,0,10.028,4.86,10.028,5.889C24.037,14.894,19.59,19.56,14.009,19.56Zm0-1.178a4.715,4.715,0,1,0,0-9.431,4.689,4.689,0,0,0-4.737,4.711A4.753,4.753,0,0,0,14.009,18.383ZM14,15.184a1.521,1.521,0,1,1,1.529-1.521A1.529,1.529,0,0,1,14,15.184Z" transform="translate(-1.924 -6.052)" fill="#197572"/>
</svg>
