<svg xmlns="http://www.w3.org/2000/svg" width="215.8" height="71.336" viewBox="0 0 215.8 71.336">
  <g id="Logo" transform="translate(-815.93 -356.167)">
    <path id="Path_2374" data-name="Path 2374" d="M11.938-25.789a9.14,9.14,0,0,1,6.574,2.232,7.882,7.882,0,0,1,2.6,5.071H18.163a6.13,6.13,0,0,0-2-3.416,6.328,6.328,0,0,0-4.2-1.26,6.732,6.732,0,0,0-5.321,2.315q-2.027,2.315-2.027,7.1A10.309,10.309,0,0,0,6.45-7.4a6.392,6.392,0,0,0,5.458,2.437,5.766,5.766,0,0,0,5.086-2.566,9.758,9.758,0,0,0,1.382-3.553H21.32a10.064,10.064,0,0,1-2.611,5.906A9.292,9.292,0,0,1,11.543-2.3,9.458,9.458,0,0,1,5.015-4.655q-3.477-3.112-3.477-9.61a12.277,12.277,0,0,1,2.611-8.092A9.538,9.538,0,0,1,11.938-25.789ZM31.4-19.5a7.417,7.417,0,0,1,3.355.812,6.187,6.187,0,0,1,2.475,2.1,7.254,7.254,0,0,1,1.093,2.869,18.773,18.773,0,0,1,.243,3.583H26.649a6.954,6.954,0,0,0,1.169,3.97A3.914,3.914,0,0,0,31.2-4.67,4.377,4.377,0,0,0,34.62-6.082a4.76,4.76,0,0,0,1.032-1.9H38.34a5.66,5.66,0,0,1-.706,2,7.1,7.1,0,0,1-1.344,1.8,6.368,6.368,0,0,1-3.082,1.64,9.363,9.363,0,0,1-2.232.243A6.848,6.848,0,0,1,25.83-4.511a8.6,8.6,0,0,1-2.11-6.187,9.345,9.345,0,0,1,2.126-6.361A7.012,7.012,0,0,1,31.4-19.5Zm4.357,7.2a7.08,7.08,0,0,0-.774-2.839,3.969,3.969,0,0,0-3.75-1.974,4.157,4.157,0,0,0-3.158,1.359,5.133,5.133,0,0,0-1.351,3.454ZM42-19.139h2.6v2.809a6.206,6.206,0,0,1,1.564-2A4.055,4.055,0,0,1,49.028-19.5q.076,0,.258.015t.622.061v2.885a4.082,4.082,0,0,0-.448-.061q-.2-.015-.448-.015A3.9,3.9,0,0,0,45.84-15.29a4.637,4.637,0,0,0-1.108,3.059v9.352H42Zm10.825-4.539h2.763v4.539h2.6v2.232h-2.6V-6.295a1.148,1.148,0,0,0,.577,1.139,2.452,2.452,0,0,0,1.063.167q.2,0,.425-.008t.531-.038v2.156a6.1,6.1,0,0,1-.979.2,9.31,9.31,0,0,1-1.1.061,2.967,2.967,0,0,1-2.6-.979,4.352,4.352,0,0,1-.683-2.543V-16.907h-2.2v-2.232h2.2Zm8.092,4.615h2.778V-2.879H60.915Zm0-6.118h2.778v3.1H60.915Zm7.591,3.568A4.873,4.873,0,0,1,69.1-24.1q.956-1.4,3.689-1.4.258,0,.531.015t.622.046v2.49q-.425-.03-.615-.038T72.97-23q-1.245,0-1.488.645a12.757,12.757,0,0,0-.243,3.287h2.7v2.156H71.209V-2.879h-2.7V-16.907H66.244v-2.156h2.262Zm8.062-.471v-3.1H79.3v3.1Zm0,3.021H79.3V-2.879H76.568Zm13.072-.547a7.089,7.089,0,0,1,4.471,1.336q1.723,1.336,2.072,4.6H93.527a4.9,4.9,0,0,0-1.108-2.5,3.5,3.5,0,0,0-2.778-.994,3.839,3.839,0,0,0-3.735,2.551,10.132,10.132,0,0,0-.729,4.084,7.685,7.685,0,0,0,1.032,4.114,3.541,3.541,0,0,0,3.249,1.67,3.553,3.553,0,0,0,2.695-1.04,5.719,5.719,0,0,0,1.374-2.847h2.657A7.132,7.132,0,0,1,93.906-3.9a7.105,7.105,0,0,1-4.661,1.5,6.222,6.222,0,0,1-5.086-2.33,8.92,8.92,0,0,1-1.9-5.822,9.809,9.809,0,0,1,2.08-6.665A6.721,6.721,0,0,1,89.64-19.609Zm11.371,12.4a2.25,2.25,0,0,0,.865,1.867,3.208,3.208,0,0,0,2.05.683,6.232,6.232,0,0,0,2.794-.668A3.76,3.76,0,0,0,109-8.952v-2.2a4.675,4.675,0,0,1-1.29.531,11,11,0,0,1-1.549.3l-1.655.213a6.329,6.329,0,0,0-2.232.622A2.425,2.425,0,0,0,101.012-7.206Zm6.619-5.526a1.485,1.485,0,0,0,1.26-.789,2.4,2.4,0,0,0,.182-1.048,2.219,2.219,0,0,0-.994-2.027,5.335,5.335,0,0,0-2.847-.63,3.617,3.617,0,0,0-3.036,1.154,3.8,3.8,0,0,0-.653,1.9H98.992q.076-3.006,1.951-4.183a8.01,8.01,0,0,1,4.35-1.177,8.85,8.85,0,0,1,4.661,1.093,3.708,3.708,0,0,1,1.776,3.4v9.367a1.2,1.2,0,0,0,.175.683.842.842,0,0,0,.736.258q.182,0,.41-.023t.486-.068V-2.8a7.611,7.611,0,0,1-.972.228,7.1,7.1,0,0,1-.911.046,2.248,2.248,0,0,1-2.05-1,3.867,3.867,0,0,1-.471-1.5,6.953,6.953,0,0,1-2.4,1.9,7.42,7.42,0,0,1-3.446.8,5.125,5.125,0,0,1-3.7-1.374,4.564,4.564,0,0,1-1.435-3.439,4.429,4.429,0,0,1,1.412-3.507,6.718,6.718,0,0,1,3.7-1.533Zm9.124-10.946h2.763v4.539h2.6v2.232h-2.6V-6.295a1.148,1.148,0,0,0,.577,1.139,2.452,2.452,0,0,0,1.063.167q.2,0,.425-.008t.531-.038v2.156a6.1,6.1,0,0,1-.979.2,9.31,9.31,0,0,1-1.1.061,2.967,2.967,0,0,1-2.6-.979,4.352,4.352,0,0,1-.683-2.543V-16.907h-2.2v-2.232h2.2ZM131.619-19.5a7.417,7.417,0,0,1,3.355.812,6.187,6.187,0,0,1,2.475,2.1,7.254,7.254,0,0,1,1.093,2.869,18.772,18.772,0,0,1,.243,3.583H126.867a6.954,6.954,0,0,0,1.169,3.97,3.914,3.914,0,0,0,3.386,1.5,4.377,4.377,0,0,0,3.416-1.412,4.76,4.76,0,0,0,1.032-1.9h2.687a5.66,5.66,0,0,1-.706,2,7.1,7.1,0,0,1-1.344,1.8,6.368,6.368,0,0,1-3.082,1.64,9.362,9.362,0,0,1-2.232.243,6.848,6.848,0,0,1-5.147-2.209,8.6,8.6,0,0,1-2.11-6.187,9.345,9.345,0,0,1,2.126-6.361A7.012,7.012,0,0,1,131.619-19.5Zm4.357,7.2a7.08,7.08,0,0,0-.774-2.839,3.969,3.969,0,0,0-3.75-1.974,4.157,4.157,0,0,0-3.158,1.359,5.133,5.133,0,0,0-1.351,3.454ZM2.464,12.13H6.791L13.2,30.987,19.559,12.13h4.281v22.3H20.971V21.27q0-.683.03-2.262t.03-3.386L14.671,34.433H11.68L5.273,15.622v.683q0,.82.038,2.5t.038,2.467V34.433H2.464Zm35.769,6.042h3.021q-.577,1.564-2.566,7.136Q37.2,29.5,36.2,32.14a46.188,46.188,0,0,1-3.34,7.591,3.818,3.818,0,0,1-3.34,1.366,6.553,6.553,0,0,1-.888-.046,7.016,7.016,0,0,1-.767-.167V38.4a9.427,9.427,0,0,0,1.032.243,4.03,4.03,0,0,0,.562.046,1.967,1.967,0,0,0,1.116-.251,2.311,2.311,0,0,0,.6-.615q.076-.121.547-1.245T32.4,34.9L26.391,18.173h3.1l4.357,13.239ZM63,22.348a5.855,5.855,0,0,0,3.363-.85A3.461,3.461,0,0,0,67.6,18.431a3.29,3.29,0,0,0-1.731-3.249,5.656,5.656,0,0,0-2.475-.455H56.012v7.621ZM52.99,12.13H63.314a10.3,10.3,0,0,1,4.205.744,5.267,5.267,0,0,1,3.143,5.268,5.924,5.924,0,0,1-.827,3.279,5.979,5.979,0,0,1-2.315,2.05,4.562,4.562,0,0,1,1.966,1.4,5.016,5.016,0,0,1,.736,2.809l.106,2.991a9.194,9.194,0,0,0,.213,1.9,1.866,1.866,0,0,0,.972,1.366v.5h-3.7a2.787,2.787,0,0,1-.243-.744,14.278,14.278,0,0,1-.152-1.761l-.182-3.72a3.125,3.125,0,0,0-1.624-2.93,6.719,6.719,0,0,0-2.718-.41H56.012v9.565H52.99Zm28.5,5.678a7.417,7.417,0,0,1,3.355.812,6.187,6.187,0,0,1,2.475,2.1,7.255,7.255,0,0,1,1.093,2.869,18.774,18.774,0,0,1,.243,3.583H76.735a6.954,6.954,0,0,0,1.169,3.97,3.914,3.914,0,0,0,3.386,1.5,4.377,4.377,0,0,0,3.416-1.412,4.76,4.76,0,0,0,1.032-1.9h2.687a5.66,5.66,0,0,1-.706,2,7.1,7.1,0,0,1-1.344,1.8,6.368,6.368,0,0,1-3.082,1.64,9.362,9.362,0,0,1-2.232.243A6.848,6.848,0,0,1,75.915,32.8a8.6,8.6,0,0,1-2.11-6.187,9.345,9.345,0,0,1,2.126-6.361A7.012,7.012,0,0,1,81.487,17.808ZM85.845,25a7.08,7.08,0,0,0-.774-2.839,3.969,3.969,0,0,0-3.75-1.974,4.157,4.157,0,0,0-3.158,1.359A5.133,5.133,0,0,0,76.811,25Zm6.164-6.832h2.6v2.308a7.282,7.282,0,0,1,2.444-2.05,6.518,6.518,0,0,1,2.869-.622q3.462,0,4.676,2.414a8.572,8.572,0,0,1,.668,3.78v10.43h-2.778V24.185a5.549,5.549,0,0,0-.44-2.4A2.669,2.669,0,0,0,99.4,20.268a5.379,5.379,0,0,0-1.594.2A4.105,4.105,0,0,0,95.834,21.8a4.022,4.022,0,0,0-.888,1.662,11.191,11.191,0,0,0-.2,2.452v8.517H92.009Zm17.839-4.539h2.763v4.539h2.6V20.4h-2.6V31.017a1.148,1.148,0,0,0,.577,1.139,2.452,2.452,0,0,0,1.063.167q.2,0,.425-.008t.531-.038v2.156a6.1,6.1,0,0,1-.979.2,9.31,9.31,0,0,1-1.1.061,2.967,2.967,0,0,1-2.6-.979,4.352,4.352,0,0,1-.683-2.543V20.4h-2.2V18.173h2.2Zm10.187,16.473a2.25,2.25,0,0,0,.865,1.867,3.209,3.209,0,0,0,2.05.683,6.232,6.232,0,0,0,2.794-.668,3.76,3.76,0,0,0,2.277-3.629v-2.2a4.675,4.675,0,0,1-1.29.531,11,11,0,0,1-1.549.3l-1.655.213a6.329,6.329,0,0,0-2.232.622A2.425,2.425,0,0,0,120.035,30.106Zm6.619-5.526a1.485,1.485,0,0,0,1.26-.789,2.4,2.4,0,0,0,.182-1.048,2.219,2.219,0,0,0-.994-2.027,5.335,5.335,0,0,0-2.847-.63,3.617,3.617,0,0,0-3.036,1.154,3.8,3.8,0,0,0-.653,1.9h-2.551q.076-3.006,1.951-4.183a8.01,8.01,0,0,1,4.35-1.177,8.85,8.85,0,0,1,4.661,1.093,3.708,3.708,0,0,1,1.776,3.4v9.367a1.2,1.2,0,0,0,.175.683.842.842,0,0,0,.736.258q.182,0,.41-.023t.486-.068v2.019a7.61,7.61,0,0,1-.972.228,7.1,7.1,0,0,1-.911.046,2.248,2.248,0,0,1-2.05-1,3.867,3.867,0,0,1-.471-1.5,6.953,6.953,0,0,1-2.4,1.9,7.42,7.42,0,0,1-3.446.8,5.125,5.125,0,0,1-3.7-1.374,4.564,4.564,0,0,1-1.435-3.439,4.429,4.429,0,0,1,1.412-3.507,6.718,6.718,0,0,1,3.7-1.533Zm8.654-12.449h2.733v22.3h-2.733Z" transform="translate(892.945 386.404)" fill="#197572"/>
    <path id="Path_2375" data-name="Path 2375" d="M0,17.655,31.228,0,63.785,17.655v46.13H0Z" transform="translate(816.055 356.167)" fill="#197572"/>
    <path id="Path_2373" data-name="Path 2373" d="M377.673,7444.253l-19.982-24.23v-21.807l23.382,26.455,34.737-29.916,5.886,3.162v11.473l-40.216,34.863Z" transform="translate(458.239 -7024.217)" fill="#fdfdfd"/>
  </g>
</svg>
