<svg id="log_out" data-name="log out" xmlns="http://www.w3.org/2000/svg" width="20.821" height="19.028" viewBox="0 0 20.821 19.028">
  <path id="rectangle.portrait.and.arrow.right_1_" data-name="rectangle.portrait.and.arrow.right (1)" d="M6.441,23.173H15.8a2.555,2.555,0,0,0,2.856-2.883V16.335H16.935v3.85a1.138,1.138,0,0,1-1.283,1.266H6.582a1.132,1.132,0,0,1-1.274-1.266V7.133A1.132,1.132,0,0,1,6.582,5.867h9.07a1.138,1.138,0,0,1,1.283,1.266v3.858h1.723V7.027A2.559,2.559,0,0,0,15.8,4.145H6.441A2.559,2.559,0,0,0,3.585,7.027V20.29A2.555,2.555,0,0,0,6.441,23.173Zm5.66-8.71h8.859l1.3-.062-.642.545-1.31,1.231a.734.734,0,0,0-.246.545.711.711,0,0,0,.7.729.7.7,0,0,0,.519-.237l2.848-2.944a.831.831,0,0,0,0-1.23l-2.848-2.953a.7.7,0,0,0-1.222.492.749.749,0,0,0,.246.545l1.31,1.239.65.545-1.31-.07H12.1a.813.813,0,0,0,0,1.626Z" transform="translate(-3.585 -4.145)" fill="rgba(0,0,0,0.65)"/>
</svg>
