<svg xmlns="http://www.w3.org/2000/svg" width="186.023" height="63.935" viewBox="0 0 186.023 63.935">
  <g id="Logo" transform="translate(-821.469 -356.167)">
    <g id="Group_1757" data-name="Group 1757" transform="translate(6)">
      <path id="Path_2375" data-name="Path 2375" d="M0,16.1,28.485,0l29.7,16.1V58.182H0Z" transform="translate(816.044 356.167)" fill="#197572"/>
      <path id="Path_2378" data-name="Path 2378" d="M400.946,7474.9l-19.515-27.419.33-16.782,20.952,29.438,35.093-30.4,2.556,1.363-.045,9.679Z" transform="translate(434.038 -7058.773)" fill="#fdfdfd"/>
    </g>
    <path id="Path_2377" data-name="Path 2377" d="M2.578,0H5.684V-14.253L12-1.406h2.2l6.313-12.847V0h3.105V-19.893H19.98L13.1-5.742l-6.87-14.15H2.578ZM32.607.205l-.308.806C31.67,2.651,30.908,3.6,29.019,3.6a5.194,5.194,0,0,1-1.89-.366l-.308,2.4a5.118,5.118,0,0,0,2.329.513c3.428,0,4.644-1.758,5.771-4.365l6.738-15.85H38.467L34.116-2.988l-4.38-11.074H26.543ZM50.874-19.878V0H53.95V-7.808h4.966L63.413,0h3.574L62.168-8.232a5.734,5.734,0,0,0,4.028-5.61c0-3.721-2.666-6.035-6.768-6.035Zm8.408,2.769c2.446,0,3.706,1.289,3.706,3.267,0,1.934-1.26,3.3-3.706,3.3H53.95v-6.562ZM68.745-7.017A7.146,7.146,0,0,0,76.113.293a7.247,7.247,0,0,0,6.357-3.574L80.332-4.834a4.729,4.729,0,0,1-4.219,2.4A4.149,4.149,0,0,1,71.748-6.2H82.661a7.084,7.084,0,0,0,.117-1.348,6.566,6.566,0,0,0-6.768-6.812A7.069,7.069,0,0,0,68.745-7.017Zm3.076-1.348a4.087,4.087,0,0,1,4.16-3.369,3.736,3.736,0,0,1,3.853,3.369ZM89.121,0V-7.925A3.607,3.607,0,0,1,93-11.6c2.183,0,3.457,1.348,3.457,3.677V0h2.9V-8.54c0-3.413-2.036-5.815-5.9-5.815a5.021,5.021,0,0,0-4.321,2.065v-1.772H86.221V0ZM104.3-11.6v7.383c0,2.856,1.846,4.512,4.79,4.512a7.449,7.449,0,0,0,3.076-.615l-.381-2.49a6.462,6.462,0,0,1-2.285.483,2.047,2.047,0,0,1-2.3-2.241V-11.6h4.438v-2.461h-4.468v-4.512h-2.827v4.512h-2.549V-11.6Z" transform="translate(895.329 413.949)" fill="#197572"/>
    <path id="Path_2376" data-name="Path 2376" d="M1.274-9.946A10.116,10.116,0,0,0,11.572.293a10.1,10.1,0,0,0,8.745-4.834l-2.3-1.6a7.587,7.587,0,0,1-6.445,3.516A6.955,6.955,0,0,1,4.5-9.946c0-4.248,2.915-7.324,7-7.324a7.339,7.339,0,0,1,6.357,3.6l2.388-1.67A10.143,10.143,0,0,0,11.5-20.186,10.073,10.073,0,0,0,1.274-9.946ZM22.28-7.017A7.146,7.146,0,0,0,29.648.293a7.247,7.247,0,0,0,6.357-3.574L33.867-4.834a4.729,4.729,0,0,1-4.219,2.4A4.149,4.149,0,0,1,25.283-6.2H36.2a7.084,7.084,0,0,0,.117-1.348,6.566,6.566,0,0,0-6.768-6.812A7.069,7.069,0,0,0,22.28-7.017Zm3.076-1.348a4.087,4.087,0,0,1,4.16-3.369,3.736,3.736,0,0,1,3.853,3.369ZM42.671,0V-7.661c0-3.179,2.021-4,3.574-4a4.642,4.642,0,0,1,1.714.322L48.267-14a5.488,5.488,0,0,0-1.934-.352,3.9,3.9,0,0,0-3.662,2.212v-1.919H39.756V0Zm9.2-11.6v7.383c0,2.856,1.846,4.512,4.79,4.512a7.449,7.449,0,0,0,3.076-.615l-.381-2.49a6.462,6.462,0,0,1-2.285.483,2.047,2.047,0,0,1-2.3-2.241V-11.6h4.438v-2.461H54.741v-4.512H51.914v4.512H49.365V-11.6Zm10.269-7.178a1.707,1.707,0,0,0,1.787,1.787,1.719,1.719,0,0,0,1.8-1.787,1.719,1.719,0,0,0-1.8-1.787A1.707,1.707,0,0,0,62.139-18.779ZM65.376,0V-14.062h-2.9V0Zm5.508-11.6V0h2.9V-11.6h4.1v-2.461H73.74v-1.362c0-2.036.879-2.944,2.769-2.944A5.194,5.194,0,0,1,78.4-18l.308-2.4a5.118,5.118,0,0,0-2.329-.513c-3.428,0-5.449,2.08-5.449,5.332v1.523h-2.7V-11.6ZM84.741.205l-.308.806C83.8,2.651,83.042,3.6,81.152,3.6a5.194,5.194,0,0,1-1.89-.366l-.308,2.4a5.118,5.118,0,0,0,2.329.513c3.428,0,4.644-1.758,5.771-4.365l6.738-15.85H90.6L86.25-2.988,81.87-14.062H78.677Z" transform="translate(895.329 377.167)" fill="#197572"/>
  </g>
</svg>
