<svg xmlns="http://www.w3.org/2000/svg" width="14.92" height="14.486" viewBox="0 0 14.92 14.486">
  <path id="magnifyingglass_1_" data-name="magnifyingglass (1)" d="M11.773,17.044a6.293,6.293,0,0,0,3.38-.978l3.427,3.3a1.2,1.2,0,0,0,.829.316,1.1,1.1,0,0,0,1.127-1.106,1.058,1.058,0,0,0-.321-.775l-3.4-3.288a5.721,5.721,0,0,0,1.119-3.394A6.06,6.06,0,0,0,11.773,5.2a6.065,6.065,0,0,0-6.157,5.922A6.06,6.06,0,0,0,11.773,17.044Zm0-1.58a4.447,4.447,0,0,1-4.514-4.342,4.447,4.447,0,0,1,4.514-4.342,4.447,4.447,0,0,1,4.514,4.342A4.447,4.447,0,0,1,11.773,15.463Z" transform="translate(-5.615 -5.199)" fill="rgba(0,0,0,0.65)"/>
</svg>
